# xmcd CD database file
#
# Track frame offsets:
#	150
#	20565
#	33917
#
# Disc length: 661 seconds
#
# Revision: 0
# Processed by: cddbd v1.5PL3 Copyright (c) Steve Scherf et al.
# Submitted via: CDex 1.51
#
DISCID=1a029303
DTITLE=勘解由友見 - こんなに醜いあたしの顔をみつめないで
DYEAR=2000
DGENRE=JPop
TTITLE0=こんなに醜いあたしの顔をみつめないで
TTITLE1=大人になること
TTITLE2=ボーイ・アンド・ガール
EXTD=YEAR: 2000
EXTT0=
EXTT1=
EXTT2=
PLAYORDER=
